{
  "accessors": [
    {
      "bufferView": 2,
      "componentType": 5126,
      "count": 43,
      "max": [
        1.1334999799728394,
        0.62980002164840698,
        1.8573000431060791
      ],
      "min": [
        -0.64289999008178711,
        -0.53070002794265747,
        -1.4283000230789185
      ],
      "type": "VEC3"
    },
    {
      "bufferView": 2,
      "byteOffset": 516,
      "componentType": 5126,
      "count": 43,
      "max": [
        0.99633300304412842,
        0.90397876501083374,
        0.92210155725479126
      ],
      "min": [
        -0.96328586339950562,
        -0.89121198654174805,
        -0.95895439386367798
      ],
      "type": "VEC3"
    },
    {
      "bufferView": 3,
      "componentType": 5126,
      "count": 43,
      "max": [
        0.78861242532730103,
        0.99749463796615601,
        0.76188451051712036,
        1
      ],
      "min": [
        -0.91661155223846436,
        -0.99170655012130737,
        -0.96278476715087891,
        1
      ],
      "type": "VEC4"
    },
    {
      "bufferView": 1,
      "componentType": 5126,
      "count": 43,
      "max": [
        0.2378000020980835,
        0.85920000076293945
      ],
      "min": [
        0.010900000110268593,
        0.2125999927520752
      ],
      "type": "VEC2"
    },
    {
      "bufferView": 0,
      "componentType": 5125,
      "count": 180,
      "max": [
        42
      ],
      "min": [
        0
      ],
      "type": "SCALAR"
    }
  ],
  "asset": {
    "extras": {
      "author": "SiVittorio (https://sketchfab.com/SiVittorio)",
      "license": "CC-BY-4.0 (http://creativecommons.org/licenses/by/4.0/)",
      "source": "https://sketchfab.com/models/a711ec5afcd64c8abe68fde2f53b1f01",
      "title": "Small Tooth"
    },
    "generator": "Sketchfab-3.46.2",
    "version": "2.0"
  },
  "bufferViews": [
    {
      "buffer": 0,
      "byteLength": 720,
      "byteOffset": 0,
      "name": "floatBufferViews",
      "target": 34963
    },
    {
      "buffer": 0,
      "byteLength": 344,
      "byteOffset": 720,
      "byteStride": 8,
      "name": "floatBufferViews",
      "target": 34962
    },
    {
      "buffer": 0,
      "byteLength": 1032,
      "byteOffset": 1064,
      "byteStride": 12,
      "name": "floatBufferViews",
      "target": 34962
    },
    {
      "buffer": 0,
      "byteLength": 688,
      "byteOffset": 2096,
      "byteStride": 16,
      "name": "floatBufferViews",
      "target": 34962
    }
  ],
  "buffers": [
    {
      "byteLength": 2784,
      "uri": "scene.bin"
    }
  ],
  "materials": [
    {
      "doubleSided": true,
      "name": "material_0",
      "pbrMetallicRoughness": {
        "baseColorFactor": [
          1,
          1,
          1,
          1
        ],
        "metallicFactor": 0,
        "roughnessFactor": 0.59999999999999998
      }
    }
  ],
  "meshes": [
    {
      "primitives": [
        {
          "attributes": {
            "NORMAL": 1,
            "POSITION": 0,
            "TANGENT": 2,
            "TEXCOORD_0": 3
          },
          "indices": 4,
          "material": 0,
          "mode": 4
        }
      ]
    }
  ],
  "nodes": [
    {
      "children": [
        1
      ],
      "name": "RootNode (gltf orientation matrix)",
      "rotation": [
        -0.70710678118654746,
        -0,
        -0,
        0.70710678118654757
      ]
    },
    {
      "children": [
        2
      ],
      "name": "RootNode (model correction matrix)"
    },
    {
      "children": [
        3
      ],
      "name": "b0860663db66439eb17b2da59f415b2e.obj.cleaner.materialmerger.gles"
    },
    {
      "mesh": 0,
      "name": ""
    }
  ],
  "scene": 0,
  "scenes": [
    {
      "name": "OSG_Scene",
      "nodes": [
        0
      ]
    }
  ]
}

