{
  "accessors": [
    {
      "bufferView": 2,
      "componentType": 5126,
      "count": 662,
      "max": [
        0.1323540061712265,
        0.18151199817657471,
        0.13235099613666534
      ],
      "min": [
        -0.13242800533771515,
        -0.48247799277305603,
        -0.13243100047111511
      ],
      "type": "VEC3"
    },
    {
      "bufferView": 2,
      "byteOffset": 7944,
      "componentType": 5126,
      "count": 662,
      "max": [
        1,
        1,
        1
      ],
      "min": [
        -1,
        -1,
        -1
      ],
      "type": "VEC3"
    },
    {
      "bufferView": 1,
      "componentType": 5126,
      "count": 662,
      "max": [
        0.99000000953674316,
        -0.0057999999262392521
      ],
      "min": [
        0.0057999999262392521,
        -0.98919999599456787
      ],
      "type": "VEC2"
    },
    {
      "bufferView": 0,
      "componentType": 5125,
      "count": 3144,
      "max": [
        661
      ],
      "min": [
        0
      ],
      "type": "SCALAR"
    }
  ],
  "asset": {
    "extras": {
      "author": "IronEqual (https://sketchfab.com/ie-niels)",
      "license": "CC-BY-4.0 (http://creativecommons.org/licenses/by/4.0/)",
      "source": "https://sketchfab.com/3d-models/balloon-from-poly-by-google-c4b59b5230f143a1887f17338c3efdee",
      "title": "Balloon from Poly by Google"
    },
    "generator": "Sketchfab-9.96.0",
    "version": "2.0"
  },
  "bufferViews": [
    {
      "buffer": 0,
      "byteLength": 12576,
      "byteOffset": 0,
      "name": "floatBufferViews",
      "target": 34963
    },
    {
      "buffer": 0,
      "byteLength": 5296,
      "byteOffset": 12576,
      "byteStride": 8,
      "name": "floatBufferViews",
      "target": 34962
    },
    {
      "buffer": 0,
      "byteLength": 15888,
      "byteOffset": 17872,
      "byteStride": 12,
      "name": "floatBufferViews",
      "target": 34962
    }
  ],
  "buffers": [
    {
      "byteLength": 33760,
      "uri": "scene.bin"
    }
  ],
  "materials": [
    {
      "doubleSided": true,
      "emissiveFactor": [
        0,
        0,
        0
      ],
      "name": "phong1SG",
      "pbrMetallicRoughness": {
        "baseColorFactor": [
          0,
          0.23000000000000001,
          0.5,
          1
        ],
        "metallicFactor": 0,
        "roughnessFactor": 0.77306299999999994
      }
    }
  ],
  "meshes": [
    {
      "primitives": [
        {
          "attributes": {
            "NORMAL": 1,
            "POSITION": 0,
            "TEXCOORD_0": 2
          },
          "indices": 3,
          "material": 0,
          "mode": 4
        }
      ]
    }
  ],
  "nodes": [
    {
      "children": [
        1
      ],
      "name": "RootNode (gltf orientation matrix)",
      "rotation": [
        -0.70710678118654746,
        -0,
        -0,
        0.70710678118654757
      ]
    },
    {
      "children": [
        2
      ],
      "name": "RootNode (model correction matrix)"
    },
    {
      "children": [
        3
      ],
      "name": "root"
    },
    {
      "children": [
        4
      ],
      "matrix": [
        1,
        0,
        0,
        0,
        0,
        2.2204460492503131e-16,
        1,
        0,
        0,
        -1,
        2.2204460492503131e-16,
        0,
        0,
        0,
        0,
        1
      ],
      "name": "GLTF_SceneRootNode"
    },
    {
      "children": [
        5
      ],
      "name": "node-0_0"
    },
    {
      "mesh": 0,
      "name": ""
    }
  ],
  "scene": 0,
  "scenes": [
    {
      "name": "OSG_Scene",
      "nodes": [
        0
      ]
    }
  ]
}

