{
  "accessors": [
    {
      "bufferView": 2,
      "componentType": 5126,
      "count": 60000,
      "max": [
        27.091527938842773,
        26.579700469970703,
        27.012195587158203
      ],
      "min": [
        -27.411411285400391,
        -27.296417236328125,
        -27.012195587158203
      ],
      "type": "VEC3"
    },
    {
      "bufferView": 2,
      "byteOffset": 720000,
      "componentType": 5126,
      "count": 60000,
      "max": [
        0.71518725156784058,
        0.71048194169998169,
        1
      ],
      "min": [
        -0.71224921941757202,
        0,
        0
      ],
      "type": "VEC3"
    },
    {
      "bufferView": 3,
      "componentType": 5126,
      "count": 60000,
      "max": [
        0,
        0,
        1,
        1
      ],
      "min": [
        -0.71940147876739502,
        -0.71224915981292725,
        0,
        1
      ],
      "type": "VEC4"
    },
    {
      "bufferView": 1,
      "componentType": 5126,
      "count": 60000,
      "max": [
        1,
        1
      ],
      "min": [
        0,
        0
      ],
      "type": "VEC2"
    },
    {
      "bufferView": 0,
      "componentType": 5125,
      "count": 90000,
      "max": [
        59999
      ],
      "min": [
        0
      ],
      "type": "SCALAR"
    },
    {
      "bufferView": 2,
      "byteOffset": 1440000,
      "componentType": 5126,
      "count": 60000,
      "max": [
        27.127607345581055,
        26.609270095825195,
        27.047018051147461
      ],
      "min": [
        -27.427650451660156,
        -27.355722427368164,
        -27.019756317138672
      ],
      "type": "VEC3"
    },
    {
      "bufferView": 2,
      "byteOffset": 2160000,
      "componentType": 5126,
      "count": 60000,
      "max": [
        0.72198820114135742,
        0.71600013971328735,
        1
      ],
      "min": [
        -0.72032022476196289,
        0,
        0
      ],
      "type": "VEC3"
    },
    {
      "bufferView": 3,
      "byteOffset": 960000,
      "componentType": 5126,
      "count": 60000,
      "max": [
        0,
        0,
        1,
        1
      ],
      "min": [
        -0.74593770503997803,
        -0.71578192710876465,
        0,
        1
      ],
      "type": "VEC4"
    },
    {
      "bufferView": 1,
      "byteOffset": 480000,
      "componentType": 5126,
      "count": 60000,
      "max": [
        1,
        1
      ],
      "min": [
        0,
        0
      ],
      "type": "VEC2"
    },
    {
      "bufferView": 0,
      "byteOffset": 360000,
      "componentType": 5125,
      "count": 90000,
      "max": [
        59999
      ],
      "min": [
        0
      ],
      "type": "SCALAR"
    },
    {
      "bufferView": 2,
      "byteOffset": 2880000,
      "componentType": 5126,
      "count": 60000,
      "max": [
        27.19976806640625,
        26.668411254882812,
        27.116662979125977
      ],
      "min": [
        -27.460126876831055,
        -27.474334716796875,
        -27.034879684448242
      ],
      "type": "VEC3"
    },
    {
      "bufferView": 2,
      "byteOffset": 3600000,
      "componentType": 5126,
      "count": 60000,
      "max": [
        0.72048687934875488,
        0.71611344814300537,
        1
      ],
      "min": [
        -0.71454507112503052,
        0,
        0
      ],
      "type": "VEC3"
    },
    {
      "bufferView": 3,
      "byteOffset": 1920000,
      "componentType": 5126,
      "count": 60000,
      "max": [
        0,
        0,
        1,
        1
      ],
      "min": [
        -0.75175917148590088,
        -0.72739368677139282,
        0,
        1
      ],
      "type": "VEC4"
    },
    {
      "bufferView": 1,
      "byteOffset": 960000,
      "componentType": 5126,
      "count": 60000,
      "max": [
        1,
        1
      ],
      "min": [
        0,
        0
      ],
      "type": "VEC2"
    },
    {
      "bufferView": 0,
      "byteOffset": 720000,
      "componentType": 5125,
      "count": 90000,
      "max": [
        59999
      ],
      "min": [
        0
      ],
      "type": "SCALAR"
    },
    {
      "bufferView": 4,
      "componentType": 5126,
      "count": 501,
      "max": [
        16.666666030883789
      ],
      "min": [
        0
      ],
      "type": "SCALAR"
    },
    {
      "bufferView": 5,
      "componentType": 5126,
      "count": 501,
      "max": [
        0,
        0,
        1,
        1
      ],
      "min": [
        0,
        0,
        -0.86392343044281006,
        -0.49818506836891174
      ],
      "type": "VEC4"
    },
    {
      "bufferView": 4,
      "byteOffset": 2004,
      "componentType": 5126,
      "count": 501,
      "max": [
        16.666666030883789
      ],
      "min": [
        0
      ],
      "type": "SCALAR"
    },
    {
      "bufferView": 5,
      "byteOffset": 8016,
      "componentType": 5126,
      "count": 501,
      "max": [
        0,
        0,
        1,
        1
      ],
      "min": [
        0,
        0,
        -0.86392349004745483,
        -0.49272727966308594
      ],
      "type": "VEC4"
    },
    {
      "bufferView": 4,
      "byteOffset": 4008,
      "componentType": 5126,
      "count": 501,
      "max": [
        16.666666030883789
      ],
      "min": [
        0
      ],
      "type": "SCALAR"
    },
    {
      "bufferView": 5,
      "byteOffset": 16032,
      "componentType": 5126,
      "count": 501,
      "max": [
        0,
        0,
        1,
        1
      ],
      "min": [
        0,
        0,
        -0.86392349004745483,
        -0.49818506836891174
      ],
      "type": "VEC4"
    }
  ],
  "animations": [
    {
      "channels": [
        {
          "sampler": 0,
          "target": {
            "node": 5,
            "path": "rotation"
          }
        },
        {
          "sampler": 1,
          "target": {
            "node": 8,
            "path": "rotation"
          }
        },
        {
          "sampler": 2,
          "target": {
            "node": 11,
            "path": "rotation"
          }
        }
      ],
      "name": "Take 001",
      "samplers": [
        {
          "input": 15,
          "interpolation": "LINEAR",
          "output": 16
        },
        {
          "input": 17,
          "interpolation": "LINEAR",
          "output": 18
        },
        {
          "input": 19,
          "interpolation": "LINEAR",
          "output": 20
        }
      ]
    }
  ],
  "asset": {
    "extras": {
      "author": "SebastianSosnowski (https://sketchfab.com/SebastianSosnowski)",
      "license": "CC-BY-4.0 (http://creativecommons.org/licenses/by/4.0/)",
      "source": "https://sketchfab.com/3d-models/star-cluster-15k-stars-model-51148b78a37a4a72b22d8e06f4293e07",
      "title": "Star Cluster - 15k stars model"
    },
    "generator": "Sketchfab-4.86.2",
    "version": "2.0"
  },
  "bufferViews": [
    {
      "buffer": 0,
      "byteLength": 1080000,
      "byteOffset": 0,
      "name": "floatBufferViews",
      "target": 34963
    },
    {
      "buffer": 0,
      "byteLength": 1440000,
      "byteOffset": 1080000,
      "byteStride": 8,
      "name": "floatBufferViews",
      "target": 34962
    },
    {
      "buffer": 0,
      "byteLength": 4320000,
      "byteOffset": 2520000,
      "byteStride": 12,
      "name": "floatBufferViews",
      "target": 34962
    },
    {
      "buffer": 0,
      "byteLength": 2880000,
      "byteOffset": 6840000,
      "byteStride": 16,
      "name": "floatBufferViews",
      "target": 34962
    },
    {
      "buffer": 0,
      "byteLength": 6012,
      "byteOffset": 9720000,
      "name": "floatBufferViews"
    },
    {
      "buffer": 0,
      "byteLength": 24048,
      "byteOffset": 9726012,
      "byteStride": 16,
      "name": "floatBufferViews"
    }
  ],
  "buffers": [
    {
      "byteLength": 9750060,
      "uri": "scene.bin"
    }
  ],
  "images": [
    {
      "uri": "textures/03_-_baseColor.png"
    },
    {
      "uri": "textures/02_-_baseColor.png"
    },
    {
      "uri": "textures/01_-_baseColor.png"
    }
  ],
  "materials": [
    {
      "alphaMode": "BLEND",
      "doubleSided": true,
      "emissiveFactor": [
        1,
        0.34565226999999998,
        0.34565226999999998
      ],
      "name": "03_-",
      "pbrMetallicRoughness": {
        "baseColorFactor": [
          1,
          1,
          1,
          0.20000000000000001
        ],
        "baseColorTexture": {
          "index": 0,
          "texCoord": 0
        },
        "metallicFactor": 0,
        "roughnessFactor": 0.89297135959999996
      }
    },
    {
      "alphaMode": "BLEND",
      "doubleSided": true,
      "emissiveFactor": [
        1,
        1,
        0.34014793600000004
      ],
      "name": "02_-",
      "pbrMetallicRoughness": {
        "baseColorFactor": [
          1,
          1,
          1,
          0.20000000000000001
        ],
        "baseColorTexture": {
          "index": 1,
          "texCoord": 0
        },
        "metallicFactor": 0,
        "roughnessFactor": 1
      }
    },
    {
      "alphaMode": "BLEND",
      "doubleSided": true,
      "emissiveFactor": [
        0,
        0.34077701199999999,
        1
      ],
      "name": "01_-",
      "pbrMetallicRoughness": {
        "baseColorFactor": [
          1,
          1,
          1,
          0.20000000000000001
        ],
        "baseColorTexture": {
          "index": 2,
          "texCoord": 0
        },
        "metallicFactor": 0,
        "roughnessFactor": 1
      }
    }
  ],
  "meshes": [
    {
      "name": "StarCluster3_03 - _0",
      "primitives": [
        {
          "attributes": {
            "NORMAL": 1,
            "POSITION": 0,
            "TANGENT": 2,
            "TEXCOORD_0": 3
          },
          "indices": 4,
          "material": 0,
          "mode": 4
        }
      ]
    },
    {
      "name": "StarCluster2_02 - _0",
      "primitives": [
        {
          "attributes": {
            "NORMAL": 6,
            "POSITION": 5,
            "TANGENT": 7,
            "TEXCOORD_0": 8
          },
          "indices": 9,
          "material": 1,
          "mode": 4
        }
      ]
    },
    {
      "name": "StarCluster1_01 - _0",
      "primitives": [
        {
          "attributes": {
            "NORMAL": 11,
            "POSITION": 10,
            "TANGENT": 12,
            "TEXCOORD_0": 13
          },
          "indices": 14,
          "material": 2,
          "mode": 4
        }
      ]
    }
  ],
  "nodes": [
    {
      "children": [
        1
      ],
      "name": "RootNode (gltf orientation matrix)",
      "rotation": [
        -0.70710678118654746,
        -0,
        -0,
        0.70710678118654757
      ]
    },
    {
      "children": [
        2
      ],
      "name": "RootNode (model correction matrix)"
    },
    {
      "children": [
        3
      ],
      "matrix": [
        1,
        0,
        0,
        0,
        0,
        -1,
        0,
        0,
        0,
        0,
        -1,
        0,
        0,
        0,
        0,
        1
      ],
      "name": "c0d234900f694cb2b1f4f457c9f91791.fbx"
    },
    {
      "children": [
        4
      ],
      "name": ""
    },
    {
      "children": [
        5,
        8,
        11
      ],
      "name": "RootNode"
    },
    {
      "children": [
        6
      ],
      "name": "StarCluster3",
      "scale": [
        100,
        100,
        100
      ]
    },
    {
      "children": [
        7
      ],
      "matrix": [
        1,
        0,
        -0,
        0,
        0,
        1,
        0,
        0,
        0,
        0,
        1,
        0,
        -0.70261108875274703,
        0,
        0,
        1
      ],
      "name": ""
    },
    {
      "mesh": 0,
      "name": "StarCluster3_03 - _0"
    },
    {
      "children": [
        9
      ],
      "name": "StarCluster2",
      "scale": [
        49.606254577636719,
        49.606254577636719,
        49.606254577636719
      ]
    },
    {
      "children": [
        10
      ],
      "matrix": [
        1,
        0,
        -0,
        0,
        0,
        1,
        0,
        0,
        0,
        0,
        1,
        0,
        -1.5490039587020901,
        0,
        0,
        1
      ],
      "name": ""
    },
    {
      "mesh": 1,
      "name": "StarCluster2_02 - _0"
    },
    {
      "children": [
        12
      ],
      "name": "StarCluster1",
      "scale": [
        24.803127288818359,
        24.803127288818359,
        24.803127288818359
      ]
    },
    {
      "children": [
        13
      ],
      "matrix": [
        1,
        0,
        -0,
        0,
        0,
        1,
        0,
        0,
        0,
        0,
        1,
        0,
        -1.9925402402877801,
        0,
        0,
        1
      ],
      "name": ""
    },
    {
      "mesh": 2,
      "name": "StarCluster1_01 - _0"
    }
  ],
  "samplers": [
    {
      "magFilter": 9729,
      "minFilter": 9987,
      "wrapS": 10497,
      "wrapT": 10497
    }
  ],
  "scene": 0,
  "scenes": [
    {
      "name": "OSG_Scene",
      "nodes": [
        0
      ]
    }
  ],
  "textures": [
    {
      "sampler": 0,
      "source": 0
    },
    {
      "sampler": 0,
      "source": 1
    },
    {
      "sampler": 0,
      "source": 2
    }
  ]
}

